<svg width="130" height="36" viewBox="0 0 130 36" fill="none" xmlns="http://www.w3.org/2000/svg">
<path d="M28.494 7.83905C30.6989 7.83905 32.4863 6.08422 32.4863 3.91953C32.4863 1.75483 30.6989 0 28.494 0C26.2892 0 24.5017 1.75483 24.5017 3.91953C24.5017 6.08422 26.2892 7.83905 28.494 7.83905Z" fill="white"/>
<path d="M16.2823 7.83905C18.4872 7.83905 20.2746 6.08422 20.2746 3.91953C20.2746 1.75483 18.4872 0 16.2823 0C14.0774 0 12.29 1.75483 12.29 3.91953C12.29 6.08422 14.0774 7.83905 16.2823 7.83905Z" fill="white"/>
<path d="M28.494 20.3662C30.6989 20.3662 32.4863 18.6113 32.4863 16.4466C32.4863 14.2819 30.6989 12.5271 28.494 12.5271C26.2892 12.5271 24.5017 14.2819 24.5017 16.4466C24.5017 18.6113 26.2892 20.3662 28.494 20.3662Z" fill="white"/>
<path d="M16.2823 20.3662C18.4872 20.3662 20.2746 18.6113 20.2746 16.4466C20.2746 14.2819 18.4872 12.5271 16.2823 12.5271C14.0774 12.5271 12.29 14.2819 12.29 16.4466C12.29 18.6113 14.0774 20.3662 16.2823 20.3662Z" fill="white"/>
<path d="M28.494 32.8933C30.6989 32.8933 32.4863 31.1385 32.4863 28.9738C32.4863 26.8091 30.6989 25.0542 28.494 25.0542C26.2892 25.0542 24.5017 26.8091 24.5017 28.9738C24.5017 31.1385 26.2892 32.8933 28.494 32.8933Z" fill="white"/>
<path d="M16.2823 32.8933C18.4872 32.8933 20.2746 31.1385 20.2746 28.9738C20.2746 26.8091 18.4872 25.0542 16.2823 25.0542C14.0774 25.0542 12.29 26.8091 12.29 28.9738C12.29 31.1385 14.0774 32.8933 16.2823 32.8933Z" fill="white"/>
<path d="M3.9923 7.83905C6.19718 7.83905 7.98459 6.08422 7.98459 3.91953C7.98459 1.75483 6.19718 0 3.9923 0C1.78741 0 0 1.75483 0 3.91953C0 6.08422 1.78741 7.83905 3.9923 7.83905Z" fill="white"/>
<path d="M3.9923 20.3662C6.19718 20.3662 7.98459 18.6113 7.98459 16.4466C7.98459 14.2819 6.19718 12.5271 3.9923 12.5271C1.78741 12.5271 0 14.2819 0 16.4466C0 18.6113 1.78741 20.3662 3.9923 20.3662Z" fill="white"/>
<path d="M3.9923 32.8933C6.19718 32.8933 7.98459 31.1385 7.98459 28.9738C7.98459 26.8091 6.19718 25.0542 3.9923 25.0542C1.78741 25.0542 0 26.8091 0 28.9738C0 31.1385 1.78741 32.8933 3.9923 32.8933Z" fill="white"/>
<path d="M40.3927 14.8327V0.845372H45.4809C47.2813 0.845372 48.6904 1.15279 49.6297 1.84447C50.5691 2.53615 51.0388 3.45839 51.0388 4.68805C51.0388 5.37973 50.8822 5.99455 50.5691 6.53253C50.256 7.0705 49.708 7.45477 49.0818 7.68533C49.7863 7.91589 50.4126 8.2233 50.804 8.76128C51.1954 9.29925 51.4302 9.91408 51.4302 10.6826C51.4302 12.066 50.9605 13.0651 50.0994 13.7568C49.2383 14.4484 47.9076 14.8327 46.1854 14.8327H40.3927ZM43.837 6.68624H45.6375C46.4203 6.68624 46.8899 6.53253 47.2031 6.30197C47.5162 6.07141 47.6727 5.68714 47.6727 5.14917C47.6727 4.53434 47.5162 4.15007 47.1248 3.84266C46.8117 3.6121 46.1854 3.45839 45.4809 3.45839H43.837V6.68624ZM43.837 8.91499V12.2965H46.1071C46.7334 12.2965 47.2031 12.1428 47.5162 11.9123C47.8293 11.6049 47.9859 11.2206 47.9859 10.7595C47.9859 9.60667 47.3596 8.99184 46.1854 8.99184H43.837V8.91499Z" fill="white"/>
<path d="M64.5813 10.0678C64.503 11.0669 64.2682 11.9123 63.7985 12.6808C63.3288 13.4493 62.6243 13.9873 61.7632 14.4484C60.9021 14.8327 59.8845 15.0633 58.7103 15.0633C56.8315 15.0633 55.3442 14.4484 54.3266 13.2956C53.2307 12.066 52.6827 10.3752 52.6827 8.22331V7.45477C52.6827 6.07141 52.9175 4.91861 53.3872 3.84266C53.8569 2.84357 54.5614 1.99818 55.5008 1.4602C56.4401 0.922229 57.4578 0.614815 58.632 0.614815C60.3542 0.614815 61.7632 1.07594 62.7808 1.92132C63.7985 2.84357 64.4247 4.07322 64.5813 5.61029H61.137C61.137 4.7649 60.9021 4.15007 60.5107 3.76581C60.1193 3.38154 59.4931 3.22783 58.632 3.22783C57.7709 3.22783 57.1447 3.53525 56.7533 4.15007C56.3619 4.7649 56.127 5.764 56.127 7.14736V8.14646C56.127 9.60667 56.2836 10.6826 56.675 11.3743C57.0664 11.9891 57.6926 12.2965 58.632 12.2965C59.4148 12.2965 60.041 12.1428 60.4324 11.7586C60.8238 11.3743 61.0587 10.8363 61.0587 9.99094H64.5813V10.0678Z" fill="white"/>
<path d="M74.836 8.91499H69.4346V12.2197H75.7753V14.8327H65.9903V0.845372H75.8536V3.45839H69.4346V6.37882H74.836V8.91499Z" fill="white"/>
<path d="M76.8713 13.3725C76.8713 12.9114 77.0279 12.5271 77.4193 12.2197C77.7324 11.9123 78.2021 11.7586 78.75 11.7586C79.298 11.7586 79.6894 11.9123 80.0808 12.2197C80.3939 12.5271 80.6287 12.9114 80.6287 13.3725C80.6287 13.8336 80.4722 14.2179 80.0808 14.5253C79.7677 14.8327 79.298 14.9864 78.75 14.9864C78.2021 14.9864 77.8107 14.8327 77.4193 14.5253C77.1061 14.2179 76.8713 13.8336 76.8713 13.3725ZM80.0808 10.3752H77.4193L77.0279 0.845372H80.5505L80.0808 10.3752Z" fill="white"/>
<path d="M127.893 19.3946V21.7105H121.013V19.3946H127.893ZM130 19.3946V32.7229H126.961V19.3946H130ZM120.724 19.3946H123.745L123.4 26.1319C123.344 27.1389 123.241 28.0146 123.092 28.7592C122.949 29.4976 122.75 30.1231 122.495 30.6357C122.247 31.1423 121.945 31.5511 121.591 31.8624C121.237 32.1675 120.824 32.3872 120.351 32.5215C119.879 32.6557 119.341 32.7229 118.739 32.7229H118.002V30.416L118.356 30.3794C118.655 30.355 118.913 30.2787 119.13 30.1506C119.354 30.0224 119.547 29.8332 119.708 29.583C119.87 29.3267 120.003 29.0002 120.109 28.6035C120.221 28.2069 120.308 27.7247 120.37 27.1572C120.438 26.5896 120.485 25.9245 120.51 25.1616L120.724 19.3946Z" fill="white"/>
<path d="M117.266 30.416V32.7229H110.041V30.416H117.266ZM111.076 19.3946V32.7229H108.036V19.3946H111.076ZM116.333 24.7588V26.9924H110.041V24.7588H116.333ZM117.275 19.3946V21.7105H110.041V19.3946H117.275Z" fill="white"/>
<path d="M104.625 30.416V32.7229H94.9665V30.416H104.625ZM95.9174 30.416V35.9908H93.0927L92.9063 30.416H95.9174ZM106.741 30.416L106.452 36H103.702V30.416H106.741ZM103.142 19.3946V21.7105H96.4674V19.3946H103.142ZM105.24 19.3946V32.7229H102.219V19.3946H105.24ZM96.1878 19.3946H99.2175L98.8353 24.8412C98.7732 25.7566 98.6675 26.5591 98.5183 27.2487C98.3754 27.9322 98.2045 28.5303 98.0056 29.0429C97.8067 29.5556 97.5861 29.998 97.3437 30.3703C97.1076 30.7425 96.8559 31.069 96.5886 31.3497C96.3276 31.6244 96.0666 31.8715 95.8055 32.0912C95.5445 32.3048 95.2897 32.5154 95.0411 32.7229H93.2419V30.416H93.8851C94.0716 30.2757 94.2611 30.0834 94.4538 29.8393C94.6527 29.5952 94.8422 29.2657 95.0225 28.8507C95.2027 28.4357 95.3612 27.9017 95.4979 27.2487C95.6346 26.5957 95.7341 25.7932 95.7962 24.8412L96.1878 19.3946Z" fill="white"/>
<path d="M86.362 21.9302L82.8568 32.7229H79.6126L84.6373 19.3946H86.6883L86.362 21.9302ZM89.2706 32.7229L85.756 21.9302L85.3924 19.3946H87.4713L92.5147 32.7229H89.2706ZM89.1214 27.7614V30.0682H82.0457V27.7614H89.1214Z" fill="white"/>
<path d="M78.4752 19.3946V32.7229H75.4362V21.7105H70.2716V32.7229H67.2418V19.3946H78.4752Z" fill="white"/>
<path d="M59.961 21.9302L56.4558 32.7229H53.2116L58.2364 19.3946H60.2873L59.961 21.9302ZM62.8696 32.7229L59.3551 21.9302L58.9915 19.3946H61.0704L66.1138 32.7229H62.8696ZM62.7204 27.7614V30.0682H55.6448V27.7614H62.7204Z" fill="white"/>
<path d="M49.7996 24.7588V27.0657H42.7706V24.7588H49.7996ZM43.7308 19.3946V32.7229H40.6917V19.3946H43.7308ZM51.8972 19.3946V32.7229H48.8674V19.3946H51.8972Z" fill="white"/>
<path d="M127.893 19.3946V21.7105H121.013V19.3946H127.893ZM130 19.3946V32.7229H126.961V19.3946H130ZM120.724 19.3946H123.745L123.4 26.1319C123.344 27.1389 123.241 28.0146 123.092 28.7592C122.949 29.4976 122.75 30.1231 122.495 30.6357C122.247 31.1423 121.945 31.5511 121.591 31.8624C121.237 32.1675 120.824 32.3872 120.351 32.5215C119.879 32.6557 119.341 32.7229 118.739 32.7229H118.002V30.416L118.356 30.3794C118.655 30.355 118.913 30.2787 119.13 30.1506C119.354 30.0224 119.547 29.8332 119.708 29.583C119.87 29.3267 120.003 29.0002 120.109 28.6035C120.221 28.2069 120.308 27.7247 120.37 27.1572C120.438 26.5896 120.485 25.9245 120.51 25.1616L120.724 19.3946Z" fill="white"/>
<path d="M117.266 30.416V32.7229H110.041V30.416H117.266ZM111.076 19.3946V32.7229H108.036V19.3946H111.076ZM116.333 24.7588V26.9924H110.041V24.7588H116.333ZM117.275 19.3946V21.7105H110.041V19.3946H117.275Z" fill="white"/>
<path d="M104.625 30.416V32.7229H94.9665V30.416H104.625ZM95.9174 30.416V35.9908H93.0927L92.9063 30.416H95.9174ZM106.741 30.416L106.452 36H103.702V30.416H106.741ZM103.142 19.3946V21.7105H96.4674V19.3946H103.142ZM105.24 19.3946V32.7229H102.219V19.3946H105.24ZM96.1878 19.3946H99.2175L98.8353 24.8412C98.7732 25.7566 98.6675 26.5591 98.5183 27.2487C98.3754 27.9322 98.2045 28.5303 98.0056 29.0429C97.8067 29.5556 97.5861 29.998 97.3437 30.3703C97.1076 30.7425 96.8559 31.069 96.5886 31.3497C96.3276 31.6244 96.0666 31.8715 95.8055 32.0912C95.5445 32.3048 95.2897 32.5154 95.0411 32.7229H93.2419V30.416H93.8851C94.0716 30.2757 94.2611 30.0834 94.4538 29.8393C94.6527 29.5952 94.8422 29.2657 95.0225 28.8507C95.2027 28.4357 95.3612 27.9017 95.4979 27.2487C95.6346 26.5957 95.7341 25.7932 95.7962 24.8412L96.1878 19.3946Z" fill="white"/>
<path d="M86.362 21.9302L82.8568 32.7229H79.6126L84.6373 19.3946H86.6883L86.362 21.9302ZM89.2706 32.7229L85.756 21.9302L85.3924 19.3946H87.4713L92.5147 32.7229H89.2706ZM89.1214 27.7614V30.0682H82.0457V27.7614H89.1214Z" fill="white"/>
<path d="M78.4752 19.3946V32.7229H75.4362V21.7105H70.2716V32.7229H67.2418V19.3946H78.4752Z" fill="white"/>
<path d="M59.961 21.9302L56.4558 32.7229H53.2116L58.2364 19.3946H60.2873L59.961 21.9302ZM62.8696 32.7229L59.3551 21.9302L58.9915 19.3946H61.0704L66.1138 32.7229H62.8696ZM62.7204 27.7614V30.0682H55.6448V27.7614H62.7204Z" fill="white"/>
<path d="M49.7996 24.7588V27.0657H42.7706V24.7588H49.7996ZM43.7308 19.3946V32.7229H40.6917V19.3946H43.7308ZM51.8972 19.3946V32.7229H48.8674V19.3946H51.8972Z" fill="white"/>
<path d="M127.893 19.3946V21.7105H121.013V19.3946H127.893ZM130 19.3946V32.7229H126.961V19.3946H130ZM120.724 19.3946H123.745L123.4 26.1319C123.344 27.1389 123.241 28.0146 123.092 28.7592C122.949 29.4976 122.75 30.1231 122.495 30.6357C122.247 31.1423 121.945 31.5511 121.591 31.8624C121.237 32.1675 120.824 32.3872 120.351 32.5215C119.879 32.6557 119.341 32.7229 118.739 32.7229H118.002V30.416L118.356 30.3794C118.655 30.355 118.913 30.2787 119.13 30.1506C119.354 30.0224 119.547 29.8332 119.708 29.583C119.87 29.3267 120.003 29.0002 120.109 28.6035C120.221 28.2069 120.308 27.7247 120.37 27.1572C120.438 26.5896 120.485 25.9245 120.51 25.1616L120.724 19.3946Z" fill="white"/>
<path d="M117.266 30.416V32.7229H110.041V30.416H117.266ZM111.076 19.3946V32.7229H108.036V19.3946H111.076ZM116.333 24.7588V26.9924H110.041V24.7588H116.333ZM117.275 19.3946V21.7105H110.041V19.3946H117.275Z" fill="white"/>
<path d="M104.625 30.416V32.7229H94.9665V30.416H104.625ZM95.9174 30.416V35.9908H93.0927L92.9063 30.416H95.9174ZM106.741 30.416L106.452 36H103.702V30.416H106.741ZM103.142 19.3946V21.7105H96.4674V19.3946H103.142ZM105.24 19.3946V32.7229H102.219V19.3946H105.24ZM96.1878 19.3946H99.2175L98.8353 24.8412C98.7732 25.7566 98.6675 26.5591 98.5183 27.2487C98.3754 27.9322 98.2045 28.5303 98.0056 29.0429C97.8067 29.5556 97.5861 29.998 97.3437 30.3703C97.1076 30.7425 96.8559 31.069 96.5886 31.3497C96.3276 31.6244 96.0666 31.8715 95.8055 32.0912C95.5445 32.3048 95.2897 32.5154 95.0411 32.7229H93.2419V30.416H93.8851C94.0716 30.2757 94.2611 30.0834 94.4538 29.8393C94.6527 29.5952 94.8422 29.2657 95.0225 28.8507C95.2027 28.4357 95.3612 27.9017 95.4979 27.2487C95.6346 26.5957 95.7341 25.7932 95.7962 24.8412L96.1878 19.3946Z" fill="white"/>
<path d="M86.362 21.9302L82.8568 32.7229H79.6126L84.6373 19.3946H86.6883L86.362 21.9302ZM89.2706 32.7229L85.756 21.9302L85.3924 19.3946H87.4713L92.5147 32.7229H89.2706ZM89.1214 27.7614V30.0682H82.0457V27.7614H89.1214Z" fill="white"/>
<path d="M78.4752 19.3946V32.7229H75.4362V21.7105H70.2716V32.7229H67.2418V19.3946H78.4752Z" fill="white"/>
<path d="M59.961 21.9302L56.4558 32.7229H53.2116L58.2364 19.3946H60.2873L59.961 21.9302ZM62.8696 32.7229L59.3551 21.9302L58.9915 19.3946H61.0704L66.1138 32.7229H62.8696ZM62.7204 27.7614V30.0682H55.6448V27.7614H62.7204Z" fill="white"/>
<path d="M49.7996 24.7588V27.0657H42.7706V24.7588H49.7996ZM43.7308 19.3946V32.7229H40.6917V19.3946H43.7308ZM51.8972 19.3946V32.7229H48.8674V19.3946H51.8972Z" fill="white"/>
<path d="M127.893 19.3946V21.7105H121.013V19.3946H127.893ZM130 19.3946V32.7229H126.961V19.3946H130ZM120.724 19.3946H123.745L123.4 26.1319C123.344 27.1389 123.241 28.0146 123.092 28.7592C122.949 29.4976 122.75 30.1231 122.495 30.6357C122.247 31.1423 121.945 31.5511 121.591 31.8624C121.237 32.1675 120.824 32.3872 120.351 32.5215C119.879 32.6557 119.341 32.7229 118.739 32.7229H118.002V30.416L118.356 30.3794C118.655 30.355 118.913 30.2787 119.13 30.1506C119.354 30.0224 119.547 29.8332 119.708 29.583C119.87 29.3267 120.003 29.0002 120.109 28.6035C120.221 28.2069 120.308 27.7247 120.37 27.1572C120.438 26.5896 120.485 25.9245 120.51 25.1616L120.724 19.3946Z" fill="white"/>
<path d="M117.266 30.416V32.7229H110.041V30.416H117.266ZM111.076 19.3946V32.7229H108.036V19.3946H111.076ZM116.333 24.7588V26.9924H110.041V24.7588H116.333ZM117.275 19.3946V21.7105H110.041V19.3946H117.275Z" fill="white"/>
<path d="M104.625 30.416V32.7229H94.9665V30.416H104.625ZM95.9174 30.416V35.9908H93.0927L92.9063 30.416H95.9174ZM106.741 30.416L106.452 36H103.702V30.416H106.741ZM103.142 19.3946V21.7105H96.4674V19.3946H103.142ZM105.24 19.3946V32.7229H102.219V19.3946H105.24ZM96.1878 19.3946H99.2175L98.8353 24.8412C98.7732 25.7566 98.6675 26.5591 98.5183 27.2487C98.3754 27.9322 98.2045 28.5303 98.0056 29.0429C97.8067 29.5556 97.5861 29.998 97.3437 30.3703C97.1076 30.7425 96.8559 31.069 96.5886 31.3497C96.3276 31.6244 96.0666 31.8715 95.8055 32.0912C95.5445 32.3048 95.2897 32.5154 95.0411 32.7229H93.2419V30.416H93.8851C94.0716 30.2757 94.2611 30.0834 94.4538 29.8393C94.6527 29.5952 94.8422 29.2657 95.0225 28.8507C95.2027 28.4357 95.3612 27.9017 95.4979 27.2487C95.6346 26.5957 95.7341 25.7932 95.7962 24.8412L96.1878 19.3946Z" fill="white"/>
<path d="M86.362 21.9302L82.8568 32.7229H79.6126L84.6373 19.3946H86.6883L86.362 21.9302ZM89.2706 32.7229L85.756 21.9302L85.3924 19.3946H87.4713L92.5147 32.7229H89.2706ZM89.1214 27.7614V30.0682H82.0457V27.7614H89.1214Z" fill="white"/>
<path d="M78.4752 19.3946V32.7229H75.4362V21.7105H70.2716V32.7229H67.2418V19.3946H78.4752Z" fill="white"/>
<path d="M59.961 21.9302L56.4558 32.7229H53.2116L58.2364 19.3946H60.2873L59.961 21.9302ZM62.8696 32.7229L59.3551 21.9302L58.9915 19.3946H61.0704L66.1138 32.7229H62.8696ZM62.7204 27.7614V30.0682H55.6448V27.7614H62.7204Z" fill="white"/>
<path d="M49.7996 24.7588V27.0657H42.7706V24.7588H49.7996ZM43.7308 19.3946V32.7229H40.6917V19.3946H43.7308ZM51.8972 19.3946V32.7229H48.8674V19.3946H51.8972Z" fill="white"/>
<path d="M127.893 19.3946V21.7105H121.013V19.3946H127.893ZM130 19.3946V32.7229H126.961V19.3946H130ZM120.724 19.3946H123.745L123.4 26.1319C123.344 27.1389 123.241 28.0146 123.092 28.7592C122.949 29.4976 122.75 30.1231 122.495 30.6357C122.247 31.1423 121.945 31.5511 121.591 31.8624C121.237 32.1675 120.824 32.3872 120.351 32.5215C119.879 32.6557 119.341 32.7229 118.739 32.7229H118.002V30.416L118.356 30.3794C118.655 30.355 118.913 30.2787 119.13 30.1506C119.354 30.0224 119.547 29.8332 119.708 29.583C119.87 29.3267 120.003 29.0002 120.109 28.6035C120.221 28.2069 120.308 27.7247 120.37 27.1572C120.438 26.5896 120.485 25.9245 120.51 25.1616L120.724 19.3946Z" fill="white"/>
<path d="M117.266 30.416V32.7229H110.041V30.416H117.266ZM111.076 19.3946V32.7229H108.036V19.3946H111.076ZM116.333 24.7588V26.9924H110.041V24.7588H116.333ZM117.275 19.3946V21.7105H110.041V19.3946H117.275Z" fill="white"/>
<path d="M104.625 30.416V32.7229H94.9665V30.416H104.625ZM95.9174 30.416V35.9908H93.0927L92.9063 30.416H95.9174ZM106.741 30.416L106.452 36H103.702V30.416H106.741ZM103.142 19.3946V21.7105H96.4674V19.3946H103.142ZM105.24 19.3946V32.7229H102.219V19.3946H105.24ZM96.1878 19.3946H99.2175L98.8353 24.8412C98.7732 25.7566 98.6675 26.5591 98.5183 27.2487C98.3754 27.9322 98.2045 28.5303 98.0056 29.0429C97.8067 29.5556 97.5861 29.998 97.3437 30.3703C97.1076 30.7425 96.8559 31.069 96.5886 31.3497C96.3276 31.6244 96.0666 31.8715 95.8055 32.0912C95.5445 32.3048 95.2897 32.5154 95.0411 32.7229H93.2419V30.416H93.8851C94.0716 30.2757 94.2611 30.0834 94.4538 29.8393C94.6527 29.5952 94.8422 29.2657 95.0225 28.8507C95.2027 28.4357 95.3612 27.9017 95.4979 27.2487C95.6346 26.5957 95.7341 25.7932 95.7962 24.8412L96.1878 19.3946Z" fill="white"/>
<path d="M86.362 21.9302L82.8568 32.7229H79.6126L84.6373 19.3946H86.6883L86.362 21.9302ZM89.2706 32.7229L85.756 21.9302L85.3924 19.3946H87.4713L92.5147 32.7229H89.2706ZM89.1214 27.7614V30.0682H82.0457V27.7614H89.1214Z" fill="white"/>
<path d="M78.4752 19.3946V32.7229H75.4362V21.7105H70.2716V32.7229H67.2418V19.3946H78.4752Z" fill="white"/>
<path d="M59.961 21.9302L56.4558 32.7229H53.2116L58.2364 19.3946H60.2873L59.961 21.9302ZM62.8696 32.7229L59.3551 21.9302L58.9915 19.3946H61.0704L66.1138 32.7229H62.8696ZM62.7204 27.7614V30.0682H55.6448V27.7614H62.7204Z" fill="white"/>
<path d="M49.7996 24.7588V27.0657H42.7706V24.7588H49.7996ZM43.7308 19.3946V32.7229H40.6917V19.3946H43.7308ZM51.8972 19.3946V32.7229H48.8674V19.3946H51.8972Z" fill="white"/>
<path d="M127.893 19.3946V21.7105H121.013V19.3946H127.893ZM130 19.3946V32.7229H126.961V19.3946H130ZM120.724 19.3946H123.745L123.4 26.1319C123.344 27.1389 123.241 28.0146 123.092 28.7592C122.949 29.4976 122.75 30.1231 122.495 30.6357C122.247 31.1423 121.945 31.5511 121.591 31.8624C121.237 32.1675 120.824 32.3872 120.351 32.5215C119.879 32.6557 119.341 32.7229 118.739 32.7229H118.002V30.416L118.356 30.3794C118.655 30.355 118.913 30.2787 119.13 30.1506C119.354 30.0224 119.547 29.8332 119.708 29.583C119.87 29.3267 120.003 29.0002 120.109 28.6035C120.221 28.2069 120.308 27.7247 120.37 27.1572C120.438 26.5896 120.485 25.9245 120.51 25.1616L120.724 19.3946Z" fill="white"/>
<path d="M117.266 30.416V32.7229H110.041V30.416H117.266ZM111.076 19.3946V32.7229H108.036V19.3946H111.076ZM116.333 24.7588V26.9924H110.041V24.7588H116.333ZM117.275 19.3946V21.7105H110.041V19.3946H117.275Z" fill="white"/>
<path d="M104.625 30.416V32.7229H94.9665V30.416H104.625ZM95.9174 30.416V35.9908H93.0927L92.9063 30.416H95.9174ZM106.741 30.416L106.452 36H103.702V30.416H106.741ZM103.142 19.3946V21.7105H96.4674V19.3946H103.142ZM105.24 19.3946V32.7229H102.219V19.3946H105.24ZM96.1878 19.3946H99.2175L98.8353 24.8412C98.7732 25.7566 98.6675 26.5591 98.5183 27.2487C98.3754 27.9322 98.2045 28.5303 98.0056 29.0429C97.8067 29.5556 97.5861 29.998 97.3437 30.3703C97.1076 30.7425 96.8559 31.069 96.5886 31.3497C96.3276 31.6244 96.0666 31.8715 95.8055 32.0912C95.5445 32.3048 95.2897 32.5154 95.0411 32.7229H93.2419V30.416H93.8851C94.0716 30.2757 94.2611 30.0834 94.4538 29.8393C94.6527 29.5952 94.8422 29.2657 95.0225 28.8507C95.2027 28.4357 95.3612 27.9017 95.4979 27.2487C95.6346 26.5957 95.7341 25.7932 95.7962 24.8412L96.1878 19.3946Z" fill="white"/>
<path d="M86.362 21.9302L82.8568 32.7229H79.6126L84.6373 19.3946H86.6883L86.362 21.9302ZM89.2706 32.7229L85.756 21.9302L85.3924 19.3946H87.4713L92.5147 32.7229H89.2706ZM89.1214 27.7614V30.0682H82.0457V27.7614H89.1214Z" fill="white"/>
<path d="M78.4752 19.3946V32.7229H75.4362V21.7105H70.2716V32.7229H67.2418V19.3946H78.4752Z" fill="white"/>
<path d="M59.961 21.9302L56.4558 32.7229H53.2116L58.2364 19.3946H60.2873L59.961 21.9302ZM62.8696 32.7229L59.3551 21.9302L58.9915 19.3946H61.0704L66.1138 32.7229H62.8696ZM62.7204 27.7614V30.0682H55.6448V27.7614H62.7204Z" fill="white"/>
<path d="M49.7996 24.7588V27.0657H42.7706V24.7588H49.7996ZM43.7308 19.3946V32.7229H40.6917V19.3946H43.7308ZM51.8972 19.3946V32.7229H48.8674V19.3946H51.8972Z" fill="white"/>
</svg>
